# xmcd
#
# Track frame offsets:
#	150
#	29447
#	53595
#	85032
#	118779
#	155242
#	186223
#	214749
#
# Disc length: 3231 seconds
#
# Revision: 1
# Processed by: cddbd v1.5.2PL0 Copyright (c) Steve Scherf et al.
# Submitted via: audiograbber 1.83.01
#
DISCID=690c9d08
DTITLE=Grateful Dead - 93-08-25 Shoreline Amphitheatre, Mountain View CA
DYEAR=1900
DGENRE=
TTITLE0=Touch Of Grey
TTITLE1=Greatest Story Ever Told
TTITLE2=Peggy-O
TTITLE3=The Same Thing
TTITLE4=Friend Of The Devil
TTITLE5=Easy Answers
TTITLE6=So Many Roads
TTITLE7=Promised Land
EXTD=
EXTT0=
EXTT1=
EXTT2=
EXTT3=
EXTT4=
EXTT5=
EXTT6=
EXTT7=
PLAYORDER=
